<svg width="557" height="133" viewBox="0 0 557 133" fill="none" xmlns="http://www.w3.org/2000/svg">
<rect width="363" height="133" rx="8" fill="#040404"/>
<rect x="383" width="174" height="133" rx="8" fill="#040404"/>
<path d="M179.796 69.9489C179.796 69.6448 179.682 69.385 179.454 69.1696L173.561 63.2679C173.441 63.1539 173.314 63.0683 173.181 63.0113C173.054 62.9543 172.925 62.9258 172.791 62.9258C172.487 62.9258 172.237 63.024 172.041 63.2204C171.844 63.4105 171.746 63.6512 171.746 63.9427C171.746 64.0947 171.775 64.2373 171.832 64.3703C171.889 64.497 171.965 64.6079 172.06 64.703L174.074 66.7367L177.334 69.7208L177.714 69.0746L174.502 68.894H163.763C163.44 68.894 163.177 68.9922 162.974 69.1886C162.778 69.385 162.68 69.6385 162.68 69.9489C162.68 70.2657 162.778 70.5223 162.974 70.7187C163.177 70.9151 163.44 71.0133 163.763 71.0133H174.502L177.714 70.8233L177.334 70.196L174.074 73.1706L172.06 75.2044C171.965 75.2994 171.889 75.4135 171.832 75.5465C171.775 75.6732 171.746 75.8126 171.746 75.9647C171.746 76.2561 171.844 76.4969 172.041 76.687C172.237 76.877 172.487 76.9721 172.791 76.9721C173.07 76.9721 173.321 76.8644 173.542 76.6489L179.454 70.7377C179.682 70.5223 179.796 70.2594 179.796 69.9489Z" fill="#7F7F7F"/>
<path d="M22.9973 69.9495C22.9973 70.2536 23.1114 70.5134 23.3395 70.7288L29.2317 76.6305C29.3521 76.7446 29.4788 76.8301 29.6118 76.8871C29.7385 76.9441 29.8684 76.9727 30.0015 76.9727C30.3056 76.9727 30.5559 76.8745 30.7523 76.678C30.9487 76.488 31.0469 76.2472 31.0469 75.9558C31.0469 75.8037 31.0184 75.6612 30.9613 75.5281C30.9043 75.4014 30.8283 75.2905 30.7333 75.1955L28.7185 73.1617L25.4588 70.1776L25.0786 70.8238L24.5426 71.0044C24.8657 71.0044 25.1287 70.9062 25.3314 70.7098C25.5278 70.5134 25.4588 70.26 25.4588 69.9495C25.4588 69.6327 25.5278 69.3761 25.3314 69.1797C25.1287 68.9833 24.8657 68.8851 24.5426 68.8851L25.0786 69.0752L25.4588 69.7024L28.7185 66.7278L30.7333 64.694C30.8283 64.599 30.9043 64.485 30.9613 64.3519C31.0184 64.2252 31.0469 64.0858 31.0469 63.9337C31.0469 63.6423 30.9487 63.4015 30.7523 63.2115C30.5559 63.0214 30.3056 62.9264 30.0015 62.9264C29.7227 62.9264 29.4725 63.0341 29.2507 63.2495L23.3395 69.1607C23.1114 69.3761 22.9973 69.6391 22.9973 69.9495Z" fill="#3D7AEE"/>
<path d="M152.026 69.9489C152.026 69.6448 151.912 69.385 151.684 69.1696L145.792 63.2679C145.671 63.1539 145.545 63.0683 145.412 63.0113C145.285 62.9543 145.155 62.9258 145.022 62.9258C144.718 62.9258 144.468 63.024 144.271 63.2204C144.075 63.4105 143.977 63.6512 143.977 63.9427C143.977 64.0947 144.005 64.2373 144.062 64.3703C144.119 64.497 144.195 64.6079 144.29 64.703L146.305 66.7367L149.565 69.7208L149.945 69.0746L150.481 68.894C150.158 68.894 149.895 68.9922 149.692 69.1886C149.496 69.385 149.565 69.6385 149.565 69.9489C149.565 70.2657 149.496 70.5223 149.692 70.7187C149.895 70.9151 150.158 71.0133 150.481 71.0133L149.945 70.8233L149.565 70.196L146.305 73.1706L144.29 75.2044C144.195 75.2994 144.119 75.4135 144.062 75.5465C144.005 75.6732 143.977 75.8126 143.977 75.9647C143.977 76.2561 144.075 76.4969 144.271 76.687C144.468 76.877 144.718 76.9721 145.022 76.9721C145.301 76.9721 145.551 76.8644 145.773 76.6489L151.684 70.7377C151.912 70.5223 152.026 70.2594 152.026 69.9489Z" fill="#3D7AEE"/>
<path d="M29.1458 69.9495C29.1458 70.2536 29.2598 70.5134 29.4879 70.7288L35.3801 76.6305C35.5005 76.7446 35.6272 76.8301 35.7603 76.8871C35.887 76.9441 36.0169 76.9727 36.1499 76.9727C36.454 76.9727 36.7043 76.8745 36.9007 76.678C37.0971 76.488 37.1953 76.2472 37.1953 75.9558C37.1953 75.8037 37.1668 75.6612 37.1098 75.5281C37.0528 75.4014 36.9767 75.2905 36.8817 75.1955L34.8669 73.1617L31.6072 70.1776L31.2271 70.8238L30.6911 71.0044C31.0142 71.0044 31.2771 70.9062 31.4799 70.7098C31.6763 70.5134 31.6072 70.26 31.6072 69.9495C31.6072 69.6327 31.6763 69.3761 31.4799 69.1797C31.2771 68.9833 31.0142 68.8851 30.6911 68.8851L31.2271 69.0752L31.6072 69.7024L34.8669 66.7278L36.8817 64.694C36.9767 64.599 37.0528 64.485 37.1098 64.3519C37.1668 64.2252 37.1953 64.0858 37.1953 63.9337C37.1953 63.6423 37.0971 63.4015 36.9007 63.2115C36.7043 63.0214 36.454 62.9264 36.1499 62.9264C35.8711 62.9264 35.6209 63.0341 35.3991 63.2495L29.4879 69.1607C29.2598 69.3761 29.1458 69.6391 29.1458 69.9495Z" fill="#3D7AEE"/>
<path d="M145.878 69.9489C145.878 69.6448 145.764 69.385 145.536 69.1696L139.643 63.2679C139.523 63.1539 139.396 63.0683 139.263 63.0113C139.136 62.9543 139.007 62.9258 138.874 62.9258C138.569 62.9258 138.319 63.024 138.123 63.2204C137.926 63.4105 137.828 63.6512 137.828 63.9427C137.828 64.0947 137.857 64.2373 137.914 64.3703C137.971 64.497 138.047 64.6079 138.142 64.703L140.157 66.7367L143.416 69.7208L143.796 69.0746L144.332 68.894C144.009 68.894 143.746 68.9922 143.544 69.1886C143.347 69.385 143.416 69.6385 143.416 69.9489C143.416 70.2657 143.347 70.5223 143.544 70.7187C143.746 70.9151 144.009 71.0133 144.332 71.0133L143.796 70.8233L143.416 70.196L140.157 73.1706L138.142 75.2044C138.047 75.2994 137.971 75.4135 137.914 75.5465C137.857 75.6732 137.828 75.8126 137.828 75.9647C137.828 76.2561 137.926 76.4969 138.123 76.687C138.319 76.877 138.569 76.9721 138.874 76.9721C139.152 76.9721 139.403 76.8644 139.624 76.6489L145.536 70.7377C145.764 70.5223 145.878 70.2594 145.878 69.9489Z" fill="#3D7AEE"/>
<path d="M75.2151 83.1559H100.926C102.438 83.1559 103.57 82.7806 104.32 82.0299C105.071 81.2792 105.446 80.1636 105.446 78.683V60.5881C105.446 59.1076 105.071 57.992 104.32 57.2413C103.57 56.4906 102.438 56.1152 100.926 56.1152H75.2151C73.7033 56.1152 72.5669 56.4906 71.8057 57.2413C71.055 57.9815 70.6797 59.0972 70.6797 60.5881V78.683C70.6797 80.1636 71.055 81.2792 71.8057 82.0299C72.5669 82.7806 73.7033 83.1559 75.2151 83.1559Z" fill="#3D7AEE"/>
<path d="M223.918 83.1559H249.63C251.141 83.1559 252.273 82.7806 253.023 82.0299C253.774 81.2792 254.149 80.1636 254.149 78.683V60.5881C254.149 59.1076 253.774 57.992 253.023 57.2413C252.273 56.4906 251.141 56.1152 249.63 56.1152H223.918C222.406 56.1152 221.27 56.4906 220.509 57.2413C219.758 57.9815 219.383 59.0972 219.383 60.5881V78.683C219.383 80.1636 219.758 81.2792 220.509 82.0299C221.27 82.7806 222.406 83.1559 223.918 83.1559Z" fill="#3D7AEE"/>
<path d="M278.418 83.1559H304.13C305.641 83.1559 306.773 82.7806 307.523 82.0299C308.274 81.2792 308.649 80.1636 308.649 78.683V60.5881C308.649 59.1076 308.274 57.992 307.523 57.2413C306.773 56.4906 305.641 56.1152 304.13 56.1152H278.418C276.906 56.1152 275.77 56.4906 275.009 57.2413C274.258 57.9815 273.883 59.0972 273.883 60.5881V78.683C273.883 80.1636 274.258 81.2792 275.009 82.0299C275.77 82.7806 276.906 83.1559 278.418 83.1559Z" fill="#3D7AEE"/>
<path d="M103.274 68.2792C104.053 67.8899 106.194 69.7389 107.167 70.7121C107.167 68.2792 107.07 63.1214 106.681 61.9536C106.291 60.7858 107.492 58.5475 108.14 57.5743H110.087L113.006 58.5475L114.466 56.6011L117.385 53.6816L120.791 57.5743L122.738 56.6011L126.144 57.5743L128.09 62.4401L131.01 61.9536L133.443 63.8999C133.28 69.7389 132.761 82.1954 131.983 85.3095C131.01 89.2022 125.171 90.1754 124.684 90.1754C124.295 90.1754 114.79 89.5266 110.087 89.2022C108.951 87.9047 106.486 85.1149 105.707 84.3364C104.734 83.3632 101.328 72.6584 101.328 71.1986C101.328 69.7389 102.301 68.7658 103.274 68.2792Z" fill="#181818"/>
<path d="M119.046 91.0851C116.464 91.0851 113.87 90.9491 111.298 91.1342C109.443 91.2664 108.371 90.5411 107.467 89.0223C105.117 85.0403 102.688 81.0848 101.042 76.7326C100.244 74.598 99.4939 72.3917 100.09 70.0456C100.353 69.0974 100.964 68.2858 101.8 67.7762C102.636 67.2666 103.633 67.0973 104.588 67.3028C105.514 67.4917 105.694 67.367 105.713 66.4112C105.713 65.0926 105.615 63.7666 105.713 62.4556C105.761 61.3303 105.94 60.2146 106.245 59.131C106.957 56.7622 108.869 55.6213 111.313 56.1351C112.329 56.3466 112.854 56.1804 113.386 55.217C114.803 52.6593 118.679 52.5007 120.445 54.8997C120.996 55.6553 121.434 55.8895 122.413 55.6553C125.546 54.8279 127.376 56.5318 128.062 59.471C128.204 60.0906 128.305 60.5855 129.089 60.4495C133.505 59.6939 134.854 62.8561 134.892 65.9427C134.94 70.2685 134.862 74.6131 134.517 78.9238C134.239 82.2257 133.482 85.4975 131.687 88.3687C131.317 88.9498 130.89 89.4915 130.412 89.9857C130.089 90.3463 129.692 90.6318 129.249 90.8223C128.805 91.0128 128.326 91.1038 127.844 91.0889C124.902 91.0549 121.985 91.0851 119.046 91.0851ZM119.283 88.5765C121.839 88.5765 124.392 88.5236 126.945 88.5992C127.433 88.6409 127.923 88.5375 128.354 88.3019C128.785 88.0662 129.138 87.7086 129.37 87.2731C130.917 84.7413 131.803 81.856 131.945 78.886C132.268 74.4507 132.275 69.9851 132.35 65.5309C132.349 64.8714 132.141 64.2291 131.758 63.6948C131.573 63.4628 131.342 63.2733 131.079 63.1391C130.815 63.0048 130.527 62.9289 130.232 62.9165C129.62 63.0601 129.085 63.4311 128.733 63.9555C128.439 64.4762 128.281 65.064 128.275 65.6631C128.193 66.6756 127.526 66.6529 126.81 66.6529C126.094 66.6529 125.745 66.2978 125.753 65.5536C125.753 64.1104 125.813 62.6634 125.753 61.2202C125.685 60.4778 125.521 59.7476 125.265 59.0479C125.025 58.2923 124.414 58.0052 123.661 57.9938C122.907 57.9825 122.353 58.2092 122.12 58.9497C121.887 59.6233 121.713 60.316 121.599 61.02C121.535 61.7398 121.524 62.4633 121.565 63.1848C121.584 64.1368 120.921 64.0953 120.283 64.1142C119.646 64.133 119.088 64.0764 119.106 63.1923C119.133 61.938 119.159 60.68 119.106 59.4144C119.076 58.6038 118.95 57.7998 118.732 57.0191C118.629 56.6167 118.384 56.2658 118.043 56.0321C117.703 55.7984 117.289 55.698 116.88 55.7497C116.467 55.7625 116.071 55.9207 115.762 56.1967C115.452 56.4727 115.248 56.8492 115.185 57.2609C115.055 57.9061 114.989 58.5631 114.99 59.2217C114.964 60.4457 114.99 61.6698 114.99 62.8939C114.99 63.9101 114.762 64.0764 113.671 64.1142C112.839 64.1406 112.404 63.895 112.415 62.943C112.433 62.0041 112.345 61.0662 112.153 60.1473C111.905 59.0139 111.238 58.5379 110.279 58.5492C109.229 58.5492 108.757 59.3048 108.58 60.1359C108.38 61.1819 108.277 62.2443 108.273 63.3094C108.232 66.192 108.243 69.0822 108.247 71.9686C108.247 72.7241 107.917 73.0302 107.171 73.0453C106.279 73.0453 105.672 72.8337 105.537 71.8099C105.455 71.2802 105.224 70.7855 104.869 70.3856C104.707 70.2202 104.511 70.0919 104.295 70.0091C104.079 69.9263 103.848 69.8911 103.617 69.9058C103.406 69.9555 103.207 70.0482 103.032 70.1781C102.858 70.308 102.711 70.4725 102.602 70.6614C102.395 71.0842 102.339 71.5659 102.444 72.0252C102.935 73.9067 103.28 75.8636 104.123 77.5751C105.825 81.0206 107.834 84.3074 109.671 87.6849C109.81 87.9808 110.036 88.226 110.319 88.3864C110.601 88.5468 110.927 88.6146 111.249 88.5803C113.93 88.5727 116.606 88.5765 119.283 88.5765Z" fill="#3D7AEE"/>
<path d="M72.1396 68.2792C71.3611 67.8899 69.2201 69.7389 68.2469 70.7121C68.2469 68.2792 68.3443 63.1214 68.7335 61.9536C69.1228 60.7858 67.9226 58.5475 67.2738 57.5743H65.3274L62.4079 58.5475L60.9482 56.6011L58.0287 53.6816L54.6226 57.5743L52.6763 56.6011L49.2702 57.5743L47.3239 62.4401L44.4044 61.9536L41.9714 63.8999C42.1336 69.7389 42.6527 82.1954 43.4312 85.3095C44.4044 89.2022 50.2434 90.1754 50.7299 90.1754C51.1192 90.1754 60.6238 89.5266 65.3274 89.2022C66.4628 87.9047 68.9282 85.1149 69.7067 84.3364C70.6799 83.3632 74.0859 72.6584 74.0859 71.1986C74.0859 69.7389 73.1128 68.7658 72.1396 68.2792Z" fill="#181818"/>
<path d="M56.3755 91.0851C58.9582 91.0851 61.5522 90.9491 64.1237 91.1342C65.9793 91.2664 67.0513 90.5411 67.9548 89.0223C70.3051 85.0403 72.7342 81.0848 74.3798 76.7326C75.1782 74.598 75.9279 72.3917 75.3319 70.0456C75.0692 69.0974 74.4576 68.2858 73.6218 67.7762C72.7861 67.2666 71.7889 67.0973 70.8336 67.3028C69.9077 67.4917 69.7278 67.367 69.7091 66.4112C69.7091 65.0926 69.8065 63.7666 69.7091 62.4556C69.6606 61.3303 69.482 60.2146 69.1768 59.131C68.4646 56.7622 66.5528 55.6213 64.1087 56.1351C63.0929 56.3466 62.5681 56.1804 62.0358 55.217C60.6188 52.6593 56.7428 52.5007 54.9773 54.8997C54.4262 55.6553 53.9876 55.8895 53.0093 55.6553C49.8755 54.8279 48.0462 56.5318 47.3602 59.471C47.2177 60.0906 47.1165 60.5855 46.3331 60.4495C41.9173 59.6939 40.5678 62.8561 40.5303 65.9427C40.4816 70.2685 40.5603 74.6131 40.9052 78.9238C41.1826 82.2257 41.9398 85.4975 43.7353 88.3687C44.1048 88.9498 44.5318 89.4915 45.0098 89.9857C45.3328 90.3463 45.7297 90.6318 46.1732 90.8223C46.6166 91.0128 47.0958 91.1038 47.5776 91.0889C50.5202 91.0549 53.4366 91.0851 56.3755 91.0851ZM56.1393 88.5765C53.5828 88.5765 51.03 88.5236 48.4773 88.5992C47.9887 88.6409 47.4987 88.5375 47.0677 88.3019C46.6368 88.0662 46.2836 87.7086 46.0519 87.2731C44.5048 84.7413 43.6189 81.856 43.4767 78.886C43.1543 74.4507 43.1468 69.9851 43.0718 65.5309C43.0733 64.8714 43.2805 64.2291 43.6641 63.6948C43.8485 63.4628 44.0801 63.2733 44.3433 63.1391C44.6064 63.0048 44.8951 62.9289 45.1898 62.9165C45.8016 63.0601 46.3371 63.4311 46.6892 63.9555C46.9833 64.4762 47.1407 65.064 47.1465 65.6631C47.229 66.6756 47.8962 66.6529 48.6122 66.6529C49.3282 66.6529 49.6768 66.2978 49.6693 65.5536C49.6693 64.1104 49.6093 62.6634 49.6693 61.2202C49.7373 60.4778 49.9011 59.7476 50.1566 59.0479C50.3965 58.2923 51.0075 58.0052 51.761 57.9938C52.5145 57.9825 53.0692 58.2092 53.3017 58.9497C53.5345 59.6233 53.7088 60.316 53.8227 61.02C53.8865 61.7398 53.8978 62.4633 53.8564 63.1848C53.8377 64.1368 54.5012 64.0953 55.1384 64.1142C55.7757 64.133 56.3342 64.0764 56.3155 63.1923C56.2893 61.938 56.263 60.68 56.3155 59.4144C56.3461 58.6038 56.4719 57.7998 56.6903 57.0191C56.7929 56.6167 57.0376 56.2658 57.3785 56.0321C57.7194 55.7984 58.1331 55.698 58.5421 55.7497C58.9552 55.7625 59.3508 55.9207 59.6603 56.1967C59.9698 56.4727 60.1736 56.8492 60.2365 57.2609C60.3673 57.9061 60.4327 58.5631 60.4314 59.2217C60.4576 60.4457 60.4314 61.6698 60.4314 62.8939C60.4314 63.9101 60.6601 64.0764 61.7509 64.1142C62.5831 64.1406 63.0179 63.895 63.0067 62.943C62.9888 62.0041 63.0768 61.0662 63.2691 60.1473C63.5165 59.0139 64.1837 58.5379 65.1433 58.5492C66.1929 58.5492 66.6652 59.3048 66.8414 60.1359C67.0415 61.1819 67.1444 62.2443 67.1488 63.3094C67.19 66.192 67.1788 69.0822 67.1751 71.9686C67.1751 72.7241 67.5049 73.0302 68.2509 73.0453C69.143 73.0453 69.7503 72.8337 69.8853 71.8099C69.9666 71.2802 70.1983 70.7855 70.5525 70.3856C70.7152 70.2202 70.911 70.0919 71.127 70.0091C71.3429 69.9263 71.5739 69.8911 71.8045 69.9058C72.0159 69.9555 72.215 70.0482 72.3897 70.1781C72.5643 70.308 72.7109 70.4725 72.8204 70.6614C73.027 71.0842 73.0826 71.5659 72.9778 72.0252C72.4868 73.9067 72.1419 75.8636 71.2985 77.5751C69.5966 81.0206 67.5874 84.3074 65.7506 87.6849C65.6123 87.9808 65.3861 88.226 65.1033 88.3864C64.8205 88.5468 64.4952 88.6146 64.1725 88.5803C61.4922 88.5727 58.8158 88.5765 56.1393 88.5765Z" fill="#3D7AEE"/>
<path d="M296.743 68.2792C297.522 67.8899 299.663 69.7389 300.636 70.7121C300.636 68.2792 300.539 63.1214 300.149 61.9536C299.76 60.7858 300.96 58.5475 301.609 57.5743H303.555L306.475 58.5475L307.935 56.6011L310.854 53.6816L314.26 57.5743L316.207 56.6011L319.613 57.5743L321.559 62.4401L324.478 61.9536L326.911 63.8999C326.749 69.7389 326.23 82.1954 325.452 85.3095C324.478 89.2022 318.639 90.1754 318.153 90.1754C317.764 90.1754 308.259 89.5266 303.555 89.2022C302.42 87.9047 299.955 85.1149 299.176 84.3364C298.203 83.3632 294.797 72.6584 294.797 71.1986C294.797 69.7389 295.77 68.7658 296.743 68.2792Z" fill="#181818"/>
<path d="M312.515 91.0851C309.932 91.0851 307.338 90.9491 304.767 91.1342C302.911 91.2664 301.839 90.5411 300.936 89.0223C298.586 85.0403 296.156 81.0848 294.511 76.7326C293.712 74.598 292.963 72.3917 293.559 70.0456C293.821 69.0974 294.433 68.2858 295.269 67.7762C296.105 67.2666 297.102 67.0973 298.057 67.3028C298.983 67.4917 299.163 67.367 299.182 66.4112C299.182 65.0926 299.084 63.7666 299.182 62.4556C299.23 61.3303 299.409 60.2146 299.714 59.131C300.426 56.7622 302.338 55.6213 304.782 56.1351C305.798 56.3466 306.323 56.1804 306.855 55.217C308.272 52.6593 312.148 52.5007 313.913 54.8997C314.464 55.6553 314.903 55.8895 315.881 55.6553C319.015 54.8279 320.844 56.5318 321.53 59.471C321.673 60.0906 321.774 60.5855 322.558 60.4495C326.973 59.6939 328.323 62.8561 328.36 65.9427C328.409 70.2685 328.33 74.6131 327.985 78.9238C327.708 82.2257 326.951 85.4975 325.155 88.3687C324.786 88.9498 324.359 89.4915 323.881 89.9857C323.558 90.3463 323.161 90.6318 322.717 90.8223C322.274 91.0128 321.795 91.1038 321.313 91.0889C318.37 91.0549 315.454 91.0851 312.515 91.0851ZM312.751 88.5765C315.308 88.5765 317.861 88.5236 320.413 88.5992C320.902 88.6409 321.392 88.5375 321.823 88.3019C322.254 88.0662 322.607 87.7086 322.839 87.2731C324.386 84.7413 325.272 81.856 325.414 78.886C325.736 74.4507 325.744 69.9851 325.819 65.5309C325.817 64.8714 325.61 64.2291 325.227 63.6948C325.042 63.4628 324.811 63.2733 324.547 63.1391C324.284 63.0048 323.996 62.9289 323.701 62.9165C323.089 63.0601 322.553 63.4311 322.201 63.9555C321.907 64.4762 321.75 65.064 321.744 65.6631C321.662 66.6756 320.994 66.6529 320.278 66.6529C319.562 66.6529 319.214 66.2978 319.221 65.5536C319.221 64.1104 319.281 62.6634 319.221 61.2202C319.153 60.4778 318.99 59.7476 318.734 59.0479C318.494 58.2923 317.883 58.0052 317.13 57.9938C316.376 57.9825 315.821 58.2092 315.589 58.9497C315.356 59.6233 315.182 60.316 315.068 61.02C315.004 61.7398 314.993 62.4633 315.034 63.1848C315.053 64.1368 314.389 64.0953 313.752 64.1142C313.115 64.133 312.556 64.0764 312.575 63.1923C312.601 61.938 312.628 60.68 312.575 59.4144C312.545 58.6038 312.419 57.7998 312.2 57.0191C312.098 56.6167 311.853 56.2658 311.512 56.0321C311.171 55.7984 310.758 55.698 310.348 55.7497C309.935 55.7625 309.54 55.9207 309.23 56.1967C308.921 56.4727 308.717 56.8492 308.654 57.2609C308.523 57.9061 308.458 58.5631 308.459 59.2217C308.433 60.4457 308.459 61.6698 308.459 62.8939C308.459 63.9101 308.231 64.0764 307.14 64.1142C306.308 64.1406 305.873 63.895 305.884 62.943C305.902 62.0041 305.814 61.0662 305.622 60.1473C305.374 59.0139 304.707 58.5379 303.747 58.5492C302.698 58.5492 302.225 59.3048 302.049 60.1359C301.849 61.1819 301.746 62.2443 301.742 63.3094C301.701 66.192 301.712 69.0822 301.716 71.9686C301.716 72.7241 301.386 73.0302 300.64 73.0453C299.748 73.0453 299.14 72.8337 299.005 71.8099C298.924 71.2802 298.692 70.7855 298.338 70.3856C298.175 70.2202 297.98 70.0919 297.764 70.0091C297.548 69.9263 297.317 69.8911 297.086 69.9058C296.875 69.9555 296.676 70.0482 296.501 70.1781C296.326 70.308 296.18 70.4725 296.07 70.6614C295.864 71.0842 295.808 71.5659 295.913 72.0252C296.404 73.9067 296.749 75.8636 297.592 77.5751C299.294 81.0206 301.303 84.3074 303.14 87.6849C303.278 87.9808 303.505 88.226 303.787 88.3864C304.07 88.5468 304.395 88.6146 304.718 88.5803C307.398 88.5727 310.075 88.5765 312.751 88.5765Z" fill="#3D7AEE"/>
<path d="M228.632 68.2792C227.853 67.8899 225.712 69.7389 224.739 70.7121C224.739 68.2792 224.836 63.1214 225.226 61.9536C225.615 60.7858 224.415 58.5475 223.766 57.5743H221.82L218.9 58.5475L217.44 56.6011L214.521 53.6816L211.115 57.5743L209.168 56.6011L205.762 57.5743L203.816 62.4401L200.897 61.9536L198.464 63.8999C198.626 69.7389 199.145 82.1954 199.923 85.3095C200.897 89.2022 206.736 90.1754 207.222 90.1754C207.611 90.1754 217.116 89.5266 221.82 89.2022C222.955 87.9047 225.42 85.1149 226.199 84.3364C227.172 83.3632 230.578 72.6584 230.578 71.1986C230.578 69.7389 229.605 68.7658 228.632 68.2792Z" fill="#181818"/>
<path d="M212.86 91.0851C215.443 91.0851 218.037 90.9491 220.608 91.1342C222.464 91.2664 223.536 90.5411 224.439 89.0223C226.789 85.0403 229.219 81.0848 230.864 76.7326C231.663 74.598 232.412 72.3917 231.816 70.0456C231.554 69.0974 230.942 68.2858 230.106 67.7762C229.27 67.2666 228.273 67.0973 227.318 67.3028C226.392 67.4917 226.212 67.367 226.193 66.4112C226.193 65.0926 226.291 63.7666 226.193 62.4556C226.145 61.3303 225.966 60.2146 225.661 59.131C224.949 56.7622 223.037 55.6213 220.593 56.1351C219.577 56.3466 219.052 56.1804 218.52 55.217C217.103 52.6593 213.227 52.5007 211.462 54.8997C210.911 55.6553 210.472 55.8895 209.494 55.6553C206.36 54.8279 204.531 56.5318 203.845 59.471C203.702 60.0906 203.601 60.5855 202.817 60.4495C198.402 59.6939 197.052 62.8561 197.015 65.9427C196.966 70.2685 197.045 74.6131 197.39 78.9238C197.667 82.2257 198.424 85.4975 200.22 88.3687C200.589 88.9498 201.016 89.4915 201.494 89.9857C201.817 90.3463 202.214 90.6318 202.658 90.8223C203.101 91.0128 203.58 91.1038 204.062 91.0889C207.005 91.0549 209.921 91.0851 212.86 91.0851ZM212.624 88.5765C210.067 88.5765 207.514 88.5236 204.962 88.5992C204.473 88.6409 203.983 88.5375 203.552 88.3019C203.121 88.0662 202.768 87.7086 202.536 87.2731C200.989 84.7413 200.103 81.856 199.961 78.886C199.639 74.4507 199.631 69.9851 199.556 65.5309C199.558 64.8714 199.765 64.2291 200.148 63.6948C200.333 63.4628 200.564 63.2733 200.828 63.1391C201.091 63.0048 201.379 62.9289 201.674 62.9165C202.286 63.0601 202.822 63.4311 203.174 63.9555C203.468 64.4762 203.625 65.064 203.631 65.6631C203.713 66.6756 204.381 66.6529 205.097 66.6529C205.813 66.6529 206.161 66.2978 206.154 65.5536C206.154 64.1104 206.094 62.6634 206.154 61.2202C206.222 60.4778 206.385 59.7476 206.641 59.0479C206.881 58.2923 207.492 58.0052 208.245 57.9938C208.999 57.9825 209.554 58.2092 209.786 58.9497C210.019 59.6233 210.193 60.316 210.307 61.02C210.371 61.7398 210.382 62.4633 210.341 63.1848C210.322 64.1368 210.986 64.0953 211.623 64.1142C212.26 64.133 212.819 64.0764 212.8 63.1923C212.774 61.938 212.747 60.68 212.8 59.4144C212.83 58.6038 212.956 57.7998 213.175 57.0191C213.277 56.6167 213.522 56.2658 213.863 56.0321C214.204 55.7984 214.617 55.698 215.027 55.7497C215.44 55.7625 215.835 55.9207 216.145 56.1967C216.454 56.4727 216.658 56.8492 216.721 57.2609C216.852 57.9061 216.917 58.5631 216.916 59.2217C216.942 60.4457 216.916 61.6698 216.916 62.8939C216.916 63.9101 217.144 64.0764 218.235 64.1142C219.067 64.1406 219.502 63.895 219.491 62.943C219.473 62.0041 219.561 61.0662 219.753 60.1473C220.001 59.0139 220.668 58.5379 221.628 58.5492C222.677 58.5492 223.15 59.3048 223.326 60.1359C223.526 61.1819 223.629 62.2443 223.633 63.3094C223.674 66.192 223.663 69.0822 223.659 71.9686C223.659 72.7241 223.989 73.0302 224.735 73.0453C225.627 73.0453 226.235 72.8337 226.37 71.8099C226.451 71.2802 226.683 70.7855 227.037 70.3856C227.2 70.2202 227.395 70.0919 227.611 70.0091C227.827 69.9263 228.058 69.8911 228.289 69.9058C228.5 69.9555 228.699 70.0482 228.874 70.1781C229.049 70.308 229.195 70.4725 229.305 70.6614C229.511 71.0842 229.567 71.5659 229.462 72.0252C228.971 73.9067 228.626 75.8636 227.783 77.5751C226.081 81.0206 224.072 84.3074 222.235 87.6849C222.097 87.9808 221.87 88.226 221.588 88.3864C221.305 88.5468 220.98 88.6146 220.657 88.5803C217.977 88.5727 215.3 88.5765 212.624 88.5765Z" fill="#3D7AEE"/>
<path d="M432.348 85.1012H458.059C459.571 85.1012 460.702 84.7259 461.453 83.9752C462.204 83.2245 462.579 82.1089 462.579 80.6283V62.5334C462.579 61.0529 462.204 59.9373 461.453 59.1866C460.702 58.4359 459.571 58.0605 458.059 58.0605H432.348C430.836 58.0605 429.7 58.4359 428.939 59.1866C428.188 59.9269 427.812 61.0425 427.812 62.5334V80.6283C427.812 82.1089 428.188 83.2245 428.939 83.9752C429.7 84.7259 430.836 85.1012 432.348 85.1012Z" fill="#3D7AEE"/>
<path d="M439.976 70.2265C439.197 69.8372 437.056 71.6862 436.083 72.6594C436.083 70.2264 436.18 65.0686 436.569 63.9008C436.959 62.733 435.758 60.4947 435.11 59.5216H433.163L430.244 60.4947L428.784 58.5484L425.865 55.6289L422.459 59.5216L420.512 58.5484L417.106 59.5216L415.16 64.3874L412.24 63.9008L409.807 65.8472C409.97 71.6862 410.489 84.1427 411.267 87.2568C412.24 91.1495 418.079 92.1226 418.566 92.1226C418.955 92.1226 428.46 91.4739 433.163 91.1495C434.299 89.8519 436.764 87.0622 437.543 86.2836C438.516 85.3105 441.922 74.6057 441.922 73.1459C441.922 71.6862 440.949 70.713 439.976 70.2265Z" fill="#181818"/>
<path d="M424.204 93.0323C426.786 93.0323 429.38 92.8963 431.952 93.0815C433.807 93.2137 434.879 92.4883 435.783 90.9696C438.133 86.9876 440.562 83.0321 442.208 78.6798C443.006 76.5453 443.756 74.3389 443.16 71.9928C442.897 71.0446 442.286 70.2331 441.45 69.7234C440.614 69.2138 439.617 69.0445 438.662 69.25C437.736 69.4389 437.556 69.3142 437.537 68.3584C437.537 67.0399 437.635 65.7138 437.537 64.4029C437.489 63.2776 437.31 62.1618 437.005 61.0783C436.293 58.7095 434.381 57.5685 431.937 58.0823C430.921 58.2939 430.396 58.1277 429.864 57.1643C428.447 54.6066 424.571 54.4479 422.805 56.8469C422.254 57.6025 421.816 57.8368 420.837 57.6025C417.704 56.7752 415.874 58.479 415.188 61.4183C415.046 62.0379 414.945 62.5328 414.161 62.3968C409.745 61.6412 408.396 64.8034 408.358 67.89C408.31 72.2157 408.388 76.5604 408.733 80.8711C409.011 84.173 409.768 87.4447 411.563 90.316C411.933 90.897 412.36 91.4388 412.838 91.933C413.161 92.2936 413.558 92.5791 414.001 92.7696C414.445 92.9601 414.924 93.0511 415.406 93.0361C418.348 93.0021 421.265 93.0323 424.204 93.0323ZM423.967 90.5238C421.411 90.5238 418.858 90.4709 416.305 90.5464C415.817 90.5881 415.327 90.4848 414.896 90.2491C414.465 90.0135 414.112 89.6559 413.88 89.2204C412.333 86.6886 411.447 83.8032 411.305 80.8333C410.982 76.3979 410.975 71.9324 410.9 67.4782C410.901 66.8187 411.109 66.1763 411.492 65.6421C411.677 65.4101 411.908 65.2206 412.171 65.0863C412.435 64.9521 412.723 64.8762 413.018 64.8638C413.63 65.0073 414.165 65.3784 414.517 65.9027C414.811 66.4235 414.969 67.0112 414.975 67.6104C415.057 68.6229 415.724 68.6002 416.44 68.6002C417.156 68.6002 417.505 68.2451 417.497 67.5008C417.497 66.0576 417.437 64.6107 417.497 63.1675C417.565 62.4251 417.729 61.6948 417.985 60.9952C418.225 60.2396 418.836 59.9524 419.589 59.9411C420.343 59.9298 420.897 60.1564 421.13 60.8969C421.363 61.5705 421.537 62.2632 421.651 62.9673C421.715 63.687 421.726 64.4106 421.685 65.132C421.666 66.0841 422.329 66.0425 422.967 66.0614C423.604 66.0803 424.162 66.0236 424.144 65.1396C424.117 63.8853 424.091 62.6272 424.144 61.3616C424.174 60.5511 424.3 59.7471 424.518 58.9664C424.621 58.564 424.866 58.2131 425.207 57.9794C425.547 57.7457 425.961 57.6453 426.37 57.697C426.783 57.7098 427.179 57.8679 427.488 58.144C427.798 58.42 428.002 58.7965 428.065 59.2082C428.195 59.8534 428.261 60.5104 428.26 61.1689C428.286 62.393 428.26 63.6171 428.26 64.8411C428.26 65.8574 428.488 66.0236 429.579 66.0614C430.411 66.0879 430.846 65.8423 430.835 64.8902C430.817 63.9513 430.905 63.0134 431.097 62.0945C431.345 60.9612 432.012 60.4851 432.971 60.4965C434.021 60.4965 434.493 61.2521 434.67 62.0832C434.87 63.1291 434.973 64.1916 434.977 65.2567C435.018 68.1393 435.007 71.0294 435.003 73.9158C435.003 74.6714 435.333 74.9774 436.079 74.9925C436.971 74.9925 437.578 74.781 437.713 73.7571C437.795 73.2274 438.026 72.7328 438.381 72.3328C438.543 72.1675 438.739 72.0391 438.955 71.9564C439.171 71.8736 439.402 71.8384 439.633 71.853C439.844 71.9028 440.043 71.9954 440.218 72.1254C440.392 72.2553 440.539 72.4197 440.648 72.6086C440.855 73.0314 440.911 73.5132 440.806 73.9725C440.315 75.8539 439.97 77.8109 439.127 79.5223C437.425 82.9678 435.416 86.2547 433.579 89.6322C433.44 89.9281 433.214 90.1732 432.931 90.3337C432.649 90.4941 432.323 90.5619 432.001 90.5276C429.32 90.52 426.644 90.5238 423.967 90.5238Z" fill="#3D7AEE"/>
<circle cx="493.505" cy="37.1377" r="11.1377" stroke="#3D7AEE" stroke-width="4"/>
<circle cx="516.857" cy="56.6006" r="11.1377" stroke="#3D7AEE" stroke-width="4"/>
<circle cx="496.427" cy="82.876" r="13.1377" fill="#3D7AEE"/>
<path d="M498.36 89.6874C499.139 89.2981 501.28 91.1471 502.253 92.1203C502.253 89.6874 502.156 84.5296 501.766 83.3618C501.377 82.194 502.577 79.9557 503.226 78.9825H505.173L508.092 79.9557L509.552 78.0093L512.471 75.0898L515.877 78.9825L517.824 78.0093L521.23 78.9825L523.176 83.8483L526.096 83.3618L528.529 85.3081C528.366 91.1471 527.847 103.604 527.069 106.718C526.096 110.61 520.257 111.584 519.77 111.584C519.381 111.584 509.876 110.935 505.173 110.61C504.037 109.313 501.572 106.523 500.793 105.745C499.82 104.771 496.414 94.0666 496.414 92.6068C496.414 91.1471 497.387 90.174 498.36 89.6874Z" fill="#181818"/>
<path d="M514.132 112.493C511.55 112.493 508.956 112.357 506.384 112.542C504.529 112.675 503.456 111.949 502.553 110.431C500.203 106.449 497.774 102.493 496.128 98.1408C495.33 96.0062 494.58 93.7999 495.176 91.4538C495.439 90.5056 496.05 89.694 496.886 89.1844C497.722 88.6748 498.719 88.5055 499.674 88.711C500.6 88.8999 500.78 88.7752 500.799 87.8194C500.799 86.5008 500.701 85.1748 500.799 83.8638C500.847 82.7385 501.026 81.6228 501.331 80.5392C502.043 78.1704 503.955 77.0295 506.399 77.5433C507.415 77.7548 507.94 77.5886 508.472 76.6252C509.889 74.0675 513.765 73.9089 515.531 76.3079C516.082 77.0635 516.52 77.2977 517.499 77.0635C520.632 76.2361 522.462 77.94 523.148 80.8792C523.29 81.4988 523.391 81.9937 524.175 81.8577C528.591 81.1021 529.94 84.2643 529.977 87.3509C530.026 91.6767 529.947 96.0213 529.603 100.332C529.325 103.634 528.568 106.906 526.772 109.777C526.403 110.358 525.976 110.9 525.498 111.394C525.175 111.755 524.778 112.04 524.335 112.231C523.891 112.421 523.412 112.512 522.93 112.497C519.988 112.463 517.071 112.493 514.132 112.493ZM514.369 109.985C516.925 109.985 519.478 109.932 522.031 110.007C522.519 110.049 523.009 109.946 523.44 109.71C523.871 109.474 524.224 109.117 524.456 108.681C526.003 106.15 526.889 103.264 527.031 100.294C527.353 95.8589 527.361 91.3933 527.436 86.9391C527.435 86.2796 527.227 85.6373 526.844 85.103C526.659 84.871 526.428 84.6815 526.165 84.5473C525.901 84.413 525.613 84.3372 525.318 84.3247C524.706 84.4683 524.171 84.8393 523.819 85.3637C523.524 85.8844 523.367 86.4722 523.361 87.0713C523.279 88.0838 522.612 88.0612 521.896 88.0612C521.18 88.0612 520.831 87.706 520.839 86.9618C520.839 85.5186 520.898 84.0716 520.839 82.6284C520.771 81.886 520.607 81.1558 520.351 80.4561C520.111 79.7005 519.5 79.4134 518.747 79.402C517.993 79.3907 517.439 79.6174 517.206 80.3579C516.973 81.0315 516.799 81.7242 516.685 82.4282C516.621 83.148 516.61 83.8715 516.651 84.593C516.67 85.545 516.007 85.5035 515.369 85.5224C514.732 85.5412 514.174 85.4846 514.192 84.6005C514.219 83.3462 514.245 82.0882 514.192 80.8226C514.162 80.012 514.036 79.208 513.817 78.4273C513.715 78.0249 513.47 77.674 513.129 77.4403C512.788 77.2066 512.375 77.1062 511.966 77.1579C511.553 77.1707 511.157 77.3289 510.848 77.6049C510.538 77.8809 510.334 78.2574 510.271 78.6691C510.14 79.3143 510.075 79.9713 510.076 80.6299C510.05 81.8539 510.076 83.078 510.076 84.3021C510.076 85.3183 509.848 85.4846 508.757 85.5224C507.925 85.5488 507.49 85.3032 507.501 84.3512C507.519 83.4123 507.431 82.4744 507.239 81.5555C506.991 80.4221 506.324 79.9461 505.364 79.9574C504.315 79.9574 503.843 80.713 503.666 81.5442C503.466 82.5901 503.363 83.6525 503.359 84.7176C503.318 87.6002 503.329 90.4904 503.333 93.3768C503.333 94.1323 503.003 94.4384 502.257 94.4535C501.365 94.4535 500.758 94.2419 500.623 93.2181C500.541 92.6884 500.309 92.1937 499.955 91.7938C499.793 91.6284 499.597 91.5001 499.381 91.4173C499.165 91.3345 498.934 91.2993 498.703 91.314C498.492 91.3637 498.293 91.4564 498.118 91.5863C497.943 91.7162 497.797 91.8807 497.687 92.0696C497.481 92.4924 497.425 92.9741 497.53 93.4334C498.021 95.3149 498.366 97.2718 499.209 98.9833C500.911 102.429 502.92 105.716 504.757 109.093C504.895 109.389 505.122 109.634 505.405 109.795C505.687 109.955 506.013 110.023 506.335 109.988C509.016 109.981 511.692 109.985 514.369 109.985Z" fill="#3D7AEE"/>
<path d="M26.7908 37H23.4954L28.5167 22.4545H32.4798L37.494 37H34.1985L30.555 25.7784H30.4414L26.7908 37ZM26.5849 31.2827H34.369V33.6832H26.5849V31.2827Z" fill="#7F7F7F"/>
<path d="M409.653 37V22.4545H415.477C416.547 22.4545 417.439 22.6132 418.154 22.9304C418.869 23.2476 419.407 23.688 419.767 24.2514C420.126 24.8101 420.306 25.4541 420.306 26.1832C420.306 26.7514 420.193 27.2509 419.965 27.6818C419.738 28.108 419.426 28.4583 419.028 28.733C418.635 29.0028 418.185 29.1946 417.678 29.3082V29.4503C418.232 29.474 418.751 29.6302 419.234 29.919C419.722 30.2079 420.117 30.6127 420.42 31.1335C420.723 31.6496 420.874 32.2652 420.874 32.9801C420.874 33.7519 420.683 34.4408 420.299 35.0469C419.92 35.6482 419.359 36.1241 418.616 36.4744C417.873 36.8248 416.956 37 415.867 37H409.653ZM412.728 34.4858H415.235C416.092 34.4858 416.717 34.3224 417.11 33.9957C417.503 33.6643 417.7 33.224 417.7 32.6747C417.7 32.2723 417.603 31.9171 417.409 31.6094C417.214 31.3016 416.937 31.0601 416.578 30.8849C416.222 30.7098 415.799 30.6222 415.306 30.6222H412.728V34.4858ZM412.728 28.5412H415.008C415.429 28.5412 415.803 28.4678 416.13 28.321C416.462 28.1695 416.722 27.9564 416.911 27.6818C417.106 27.4072 417.203 27.0781 417.203 26.6946C417.203 26.169 417.016 25.7453 416.642 25.4233C416.272 25.1013 415.747 24.9403 415.065 24.9403H412.728V28.5412Z" fill="#7F7F7F"/>
</svg>
